    <svg
      xmlns="http://www.w3.org/2000/svg"
      width="current"
      height="current"
      viewBox="0 0 264.264 139.38"
    >
      <g
        id="Group_286"
        data-name="Group 286"
        transform="translate(-430.368 -87)"
      >
        <path
          id="Path_234"
          data-name="Path 234"
          d="M452.112,110.662H430.368v92.092H446.7v-36.2h4.785c16.087,0,21.693-9.735,21.693-25.863v-5.624C473.176,118.753,466.193,110.662,452.112,110.662Zm4.726,30.1c0,7.669-1.308,11.432-7.5,11.432H446.7V124.62h3.422c5.434,0,6.718,3.838,6.718,9.792Z"
          fill="current"
        />
        <path
          id="Path_235"
          data-name="Path 235"
          d="M515.838,148.474c0-12.694-6.085-19.508-19.308-19.508-14.855,0-20.147,8.124-20.147,20.745v1.127H492.1v-1.694c0-4.237.807-6.643,3.74-6.643,3.015,0,3.658,2.219,3.658,7.118v8.459h-1.1c-12.436,0-24.052,4.464-24.052,23.076v1.339c0,11.1,4.066,21.317,14.284,21.317,5.032,0,8.864-1.876,11.42-6.4a40.756,40.756,0,0,0,.979,5.348h15.193c-.3-3.189-.388-10.126-.388-16.627Zm-16.173,30.531c0,7.4-1.5,9.916-4.818,9.916-3.143,0-4.661-2.593-4.661-7.625v-.91c0-7.586,3.142-9.892,7.931-9.892h1.548Z"
          fill="current"
        />
        <path
          id="Path_236"
          data-name="Path 236"
          d="M538.656,140.928c0-3.3-.3-9.374-.47-10.858H522.618c.209,6.282.171,12.234.171,24.677v48.007H539.12V164.191c0-12.32,5.657-13.9,13.518-13.9V128.966C546.412,129.014,541.057,132.445,538.656,140.928Z"
          fill="current"
        />
        <path
          id="Path_237"
          data-name="Path 237"
          d="M599.173,130.07H582.259c-2.6,8.064-7.1,21.831-9.717,30.126h-.388V106.611H556.085v96.143h16.069V183.217l4.231-9.53,6.152,29.067h17.556l-12.234-45.9Z"
          fill="current"
        />
        <path
          id="Path_238"
          data-name="Path 238"
          d="M681,128.966a13.047,13.047,0,0,0-12.512,8,62.426,62.426,0,0,0-.552-6.9h-15.7c.127,3.647.172,11.1.172,20.853V226.38h16.33v-28.5a11.548,11.548,0,0,0,10.465,6.031c11.313,0,15.428-8.1,15.428-22.961V149.4C694.632,135.8,690.318,128.966,681,128.966Zm-2.694,51.2c0,5.5-1.279,8.345-4.909,8.345-3.607,0-4.654-3.559-4.654-9.58V153.042c0-6.744,1.916-8.773,5.073-8.773,3.1,0,4.49,2.608,4.49,7.621Z"
          fill="current"
        />
        <path
          id="Path_239"
          data-name="Path 239"
          d="M644.313,94.668,637.706,87,631.1,94.668l-6.607,7.667h4.947v78.458c0,4.972-1.212,8.239-5.148,8.239-3.72,0-5.225-2.868-5.225-8.239V110.662H602.646V179.5c0,16.736,6.653,24.54,21.39,24.54,15.009,0,21.911-8.069,21.911-24.394V102.335h4.974Z"
          fill="current"
        />
      </g>
    </svg>


